<?xml version="1.0" encoding="utf-8"?>
<!-- Generator: Adobe Illustrator 17.0.0, SVG Export Plug-In . SVG Version: 6.00 Build 0)  -->
<!DOCTYPE svg PUBLIC "-//W3C//DTD SVG 1.1//EN" "http://www.w3.org/Graphics/SVG/1.1/DTD/svg11.dtd">
<svg version="1.1" id="图层_1" xmlns="http://www.w3.org/2000/svg" xmlns:xlink="http://www.w3.org/1999/xlink" x="0px" y="0px"
	 width="1024px" height="1024px" viewBox="0 0 1024 1024" enable-background="new 0 0 1024 1024" xml:space="preserve">
<g>
	<path fill="#EE3F24" d="M952.638,791.405c-5.944-13.733-10.775-21.857-14.523-24.361c-3.748-2.49-9.531-10.146-17.334-22.957
		c-7.817-12.794-12.34-22.018-13.585-27.639c-1.258-7.496-5.62-14.056-13.116-19.676c-7.496-5.622-12.342-14.054-14.523-25.298
		c-2.196-11.244-3.748-18.888-4.685-22.956c-0.938-4.055-1.566-11.859-1.873-23.424c-0.324-11.551-1.727-17.334-4.216-17.334
		c-2.502,0-2.81-10.306-0.935-30.919c1.873-20.613,1.083-31.855-2.343-33.729c-3.442-1.873-5.623-17.333-6.558-46.38
		c-0.938-29.046-2.81-44.037-5.621-44.974c-2.811-0.937-4.216-3.586-4.216-7.963c0-1.875-0.321-2.81-0.935-2.81
		c-4.379,2.504-7.496,11.873-9.372,28.109c-0.629,8.126-2.972,20.936-7.025,38.415c-4.069,17.496-7.965,37.48-11.713,59.966
		c-6.25,33.73-10.306,52.162-12.18,55.28c-1.259,2.505-2.81,11.713-4.685,27.642c-1.873,15.928-4.068,26.088-6.558,30.451
		c-2.504,4.376-3.748,9.37-3.748,14.991c0,4.377-2.665,15.152-7.963,32.324c-5.315,17.186-10.16,30.143-14.523,38.884
		c-2.502,5.621-6.25,10.159-11.243,13.585c-5.007,3.439-9.692,5.153-14.054,5.153c-1.26,0-4.07,1.099-8.433,3.28
		c-4.378,2.195-9.692,3.909-15.928,5.153c-6.8,1.859-13.679,3.422-20.614,4.685c-7.496,1.873-14.523,1.873-21.082,0
		c-6.56-1.873-10.776-4.993-12.649-9.37c-6.252-16.237-10.468-46.688-12.649-91.353c-2.196-44.651-1.405-76.362,2.343-95.1
		c5.622-22.487,6.704-43.407,3.279-62.775c-3.439-19.355-10.775-34.668-22.018-45.911l-16.865-14.991l21.549-11.243
		c13.733-7.495,22.02-11.243,24.83-11.243s6.557-2.343,11.243-7.028c4.685-4.684,9.985-7.027,15.928-7.027
		c5.931,0,12.958-2.49,21.083-7.496c8.111-4.993,16.396-8.433,24.829-10.306c8.433-1.873,12.649-3.748,12.649-5.622
		c0-3.118,5.299-5.929,15.928-8.433c10.615-2.488,21.551-3.748,32.794-3.748c29.352,1.259,44.037-5.299,44.037-19.676
		c0-8.741-5.007-16.705-14.992-23.894c-9.997-7.173-22.486-11.711-37.477-13.586c-15.621-1.873-28.431-5.928-38.415-12.18
		c-10.63-6.237-25.152-18.887-43.57-37.947c-18.432-19.046-29.514-32.632-33.262-40.757c-4.377-10.615-6.09-27.173-5.153-49.66
		c0.937-22.485,4.216-36.218,9.838-41.225c4.991-5.623,7.025-10.146,6.09-13.586c-0.937-3.426-4.844-5.153-11.711-5.153
		c-2.504,0-4.685,0.321-6.558,0.937c-3.134,0.629-4.377,1.566-3.748,2.81c1.875,3.133,1.246,4.685-1.873,4.685
		c-5.622,0-12.971,8.125-22.018,24.361c-9.062,16.25-13.585,29.676-13.585,40.289c0,4.378-2.665,9.838-7.963,16.396
		c-5.315,6.559-7.35,10.468-6.09,11.713c1.243,1.258-1.568,10.773-8.433,28.576c-6.882,17.803-10.308,29.514-10.308,35.135
		c0,5.623-1.405,8.433-4.216,8.433c-2.811,0-3.909,1.564-3.28,4.684c0.616,5.007,0.616,9.063,0,12.181
		c-0.629,5.006-2.195,6.558-4.684,4.684c-3.131-1.873-4.068-0.614-2.81,3.748c1.875,3.134,1.713,7.656-0.468,13.585
		c-2.196,5.944-7.656,18.9-16.396,38.884c-7.496,16.25-12.181,27.495-14.054,33.73c-0.624,1.871-1.575,3.615-2.81,5.153
		c-1.26,1.566-2.504,2.034-3.748,1.405c-1.258-0.614-2.196-0.937-2.81-0.937c-0.629,0-0.629,0.629,0,1.873
		c0.613,3.748-0.47,8.286-3.28,13.586c-2.81,5.314-5.476,7.963-7.963,7.963c-3.747,0-7.495,1.874-11.243,5.622
		c-3.748,3.748-7.35,6.091-10.776,7.027c-3.442,0.937-13.908,6.09-31.387,15.46c-18.125,9.368-48.106,24.683-89.947,45.911
		c-42.486,20.613-66.845,34.521-73.082,41.694c-6.25,7.19-13.439,15.461-21.549,24.83l-12.181,14.054l-2.81-13.117
		c-1.875-8.739-4.685-14.669-8.433-17.802c-9.371-7.495-8.434-16.542,2.81-27.171c4.993-5.623,7.496-9.677,7.496-12.181
		c0-2.49,1.713-5.462,5.153-8.901c3.424-3.428,10.775-13.895,22.018-31.39c11.242-17.479,18.738-28.108,22.486-31.856
		c2.488-3.746,8.272-15.458,17.342-35.135c9.046-19.676,15.137-34.199,18.27-43.568c6.866-20.613,8.741-43.875,5.622-69.803
		c-3.133-25.913-10-45.443-20.613-58.56c-11.873-14.991-28.109-25.913-48.722-32.794c-20.613-6.865-37.172-7.173-49.66-0.936
		c-7.495,4.377-11.243,10.306-11.243,17.803c0,7.495,3.747,14.685,11.243,21.549c6.236,5.006,9.677,8.593,10.306,10.775
		c0.616,2.196-0.32,6.72-2.81,13.585c-9.999,26.234-28.109,56.217-54.343,89.947c-21.872,27.493-35.604,44.359-41.225,50.595
		c-1.259,1.26-13.909,15.153-37.947,41.695c-24.053,26.557-39.206,40.92-45.442,43.101c-6.25,2.195-10.774,6.558-13.585,13.117
		c-2.813,6.558-1.26,13.906,4.684,22.018c5.931,8.126,10.146,26.396,12.649,54.812c2.488,28.431,5.929,45.911,10.306,52.47
		c4.362,6.56,5.622,10.775,3.748,12.649c-1.259,1.26-1.098,2.972,0.468,5.153c1.551,2.196,3.893,3.909,7.027,5.153
		c3.119,1.26,5.623,1.26,7.496,0c3.118-0.614,4.993-0.614,5.622,0c0.617,0.629,0.309,2.81-0.935,6.558l-2.81,8.433l14.99-8.433
		c8.771-4.635,17.515-9.32,26.234-14.054c6.866-3.748,15.46-11.711,25.766-23.892c10.306-12.18,16.704-18.27,19.208-18.27
		c1.875,1.875,2.651,7.188,2.343,15.929c-0.322,8.753-1.406,19.53-3.28,32.324c-1.875,12.808-4.068,22.339-6.558,28.576
		c-5.622,15.62-8.594,26.088-8.901,31.387c-0.322,5.314,2.342,12.033,7.963,20.144c6.865,10,11.243,20.934,13.117,32.794
		c2.489,18.738,8.433,37.316,17.803,55.747c9.368,18.418,18.417,29.515,27.171,33.263c4.993,2.489,11.083,2.342,18.271-0.468
		c7.174-2.811,10.775-6.412,10.775-10.775c0-3.133,1.406-5.154,4.216-6.091c2.81-0.936,4.83-29.834,6.09-86.666
		c1.245-41.841,3.28-71.21,6.09-88.075c2.81-16.865,6.705-25.298,11.711-25.298c3.119,0,4.685-2.65,4.685-7.963
		c0-5.299,1.714-9.676,5.153-13.117c3.426-3.427,6.866-8.112,10.306-14.054c3.426-5.929,6.558-8.902,9.37-8.902
		c2.811,0,7.496-2.81,14.054-8.432c6.558-5.623,11.857-8.433,15.928-8.433c4.056,0,14.991-5.769,32.794-17.334
		c17.803-11.552,29.982-18.271,36.541-20.144c6.558-1.873,17.174-6.704,31.857-14.523c14.67-7.804,23.103-11.082,25.299-9.838
		c2.181,1.257,3.28,0.468,3.28-2.343c0-2.811,1.245-4.216,3.748-4.216c1.245,0,1.245,2.195,0,6.558
		c-1.259,4.377-3.28,8.901-6.09,13.586c-2.81,4.685-4.845,7.657-6.09,8.901c-2.504,1.26-4.538,7.187-6.09,17.803
		c-1.567,10.63-4.539,18.272-8.901,22.956c-4.379,4.685-6.882,8.755-7.496,12.181c-0.629,3.442-2.196,10.468-4.685,21.082
		c-1.258,5.007-2.196,9.062-2.81,12.181c-3.133,11.873-6.558,14.991-10.306,9.37c-2.504-3.748-3.748-3.119-3.748,1.873
		c0,3.748-4.069,12.036-12.18,24.83c-8.126,12.81-14.377,20.468-18.739,22.956c-3.131,2.505-4.684,5.316-4.684,8.433
		c0,3.134-2.811,7.35-8.433,12.649c-5.62,5.315-9.999,7.963-13.117,7.963c-3.132,0.631-6.558,1.26-10.306,1.875
		c-3.133,0-4.685,2.81-4.685,8.433c0,5.623,1.245,10.937,3.748,15.929c3.119,5.005,5.623,18.43,7.496,40.287
		c1.873,13.732,3.748,23.425,5.622,29.046c1.873,5.622,4.993,10.614,9.37,14.991c7.496,8.112,12.797,12.18,15.929,12.18
		c2.488,0,8.738-5.622,18.738-16.865c9.984-11.243,17.478-20.935,22.486-29.046c7.496-13.117,16.865-32.471,28.109-58.09
		c11.243-25.604,17.803-43.1,19.676-52.47c1.873-6.866,5.298-14.361,10.306-22.486c4.993-8.109,7.496-15.298,7.496-21.549
		c0-6.238,2.019-12.957,6.09-20.144c4.055-7.175,7.963-16.075,11.711-26.704c8.741-25.604,15.604-44.345,20.613-56.217
		c3.118-8.109,6.866-18.739,11.243-31.856c4.993-14.361,9.517-24.361,13.585-29.982c4.055-5.623,9.208-8.433,15.461-8.433
		c4.991,0,7.965,0.935,8.901,2.81c0.937,1.873,0.775,7.495-0.468,16.865c-1.873,13.12-5.315,30.922-10.308,53.408
		c-6.25,24.361-9.999,42.794-11.243,55.28c-1.259,12.502-1.875,32.792-1.875,60.901c0,23.745,0.468,39.514,1.405,47.315
		c0.935,7.819,4.215,18.272,9.837,31.39c8.112,18.122,14.056,31.856,17.804,41.225c6.865,19.354,17.803,36.687,32.793,52
		c14.99,15.298,31.855,27.01,50.594,35.136c13.117,4.993,22.633,7.803,28.577,8.433c5.928,0.614,16.074,0,30.451-1.873
		c21.227-3.133,41.841-7.495,61.838-13.116c30.597-8.755,57.155-14.685,79.641-17.804c5.622-1.259,11.243-4.538,16.865-9.838
		c5.622-5.314,10.306-7.348,14.054-6.09c3.747,1.246,9.837-2.034,18.27-9.837c8.433-7.817,12.957-14.845,13.587-21.081
		C960.92,814.83,958.577,805.153,952.638,791.405z M613.004,416.626c-3.133-2.488,5.622-34.667,26.234-96.505
		c8.742-27.479,14.054-46.848,15.929-58.091c0.613-3.119,0.935-5.623,0.935-7.496c1.245-6.237,2.81-6.867,4.685-1.875
		c2.488,5.007,3.748,10.309,3.748,15.929s5.3,15.152,15.929,28.576c10.614,13.44,15.928,21.71,15.928,24.829
		c0,3.133,4.994,10,14.991,20.613c0.616,1.259,1.551,2.504,2.811,3.748c6.866,6.881,9.208,11.873,7.028,14.991
		c-2.197,3.134-13.587,9.692-34.2,19.676c-3.748,1.875-6.558,3.133-8.433,3.748c-23.745,11.873-40.287,20.613-49.657,26.236
		C619.562,416.626,614.247,418.5,613.004,416.626z"/>
	<path fill="#EE3F24" d="M765.259,133.67c2.811,0,8.111,6.25,15.928,18.738c7.804,12.502,11.082,19.998,9.838,22.486
		c-2.502,3.134-1.405,7.963,3.28,14.523c4.685,6.56,10.454,11.404,17.334,14.523c13.732,6.252,24.36,7.496,31.857,3.748
		c7.496-3.747,9.37-11.551,5.622-23.423c-1.875-7.497-7.819-17.174-17.804-29.047c-9.999-11.859-17.186-17.803-21.549-17.803
		c-5.006,0-9.061-1.873-12.18-5.622c-3.133-3.748-7.35-6.236-12.649-7.496c-5.314-1.243-8.754-0.614-10.306,1.875
		c-1.567,2.504-3.44,2.972-5.622,1.405c-2.196-1.552-4.069-0.938-5.621,1.873C761.818,132.262,762.447,133.67,765.259,133.67z"/>
</g>
</svg>
