<?xml version="1.0" encoding="utf-8"?>
<!-- Generator: Adobe Illustrator 17.0.0, SVG Export Plug-In . SVG Version: 6.00 Build 0)  -->
<!DOCTYPE svg PUBLIC "-//W3C//DTD SVG 1.1//EN" "http://www.w3.org/Graphics/SVG/1.1/DTD/svg11.dtd">
<svg version="1.1" id="图层_1" xmlns="http://www.w3.org/2000/svg" xmlns:xlink="http://www.w3.org/1999/xlink" x="0px" y="0px"
	 width="1024px" height="1024px" viewBox="0 0 1024 1024" enable-background="new 0 0 1024 1024" xml:space="preserve">
<path fill="#EE3F24" d="M828.783,195.217C744.107,110.542,631.607,64,512,64s-232.207,46.642-316.783,131.217
	C110.542,279.793,64,392.393,64,512c0,119.707,46.642,232.207,131.217,316.783C279.793,913.458,392.393,960,512,960
	s232.207-46.642,316.783-131.217C913.458,744.207,960,631.607,960,512C960,392.293,913.358,279.793,828.783,195.217L828.783,195.217
	z M795.453,795.453C719.685,871.221,618.996,912.858,511.9,912.858s-207.786-41.737-283.553-117.505S110.942,618.895,110.942,511.8
	s41.737-207.786,117.405-283.553c75.768-75.768,176.458-117.505,283.553-117.505s207.785,41.737,283.553,117.505
	S912.958,404.704,912.958,511.8C912.858,619.096,871.221,719.786,795.453,795.453L795.453,795.453z M635.51,292.404
	c-29.626-26.424-68.361-39.635-116.104-39.635c-54.148,0-96.987,15.914-128.415,47.743c-31.428,31.828-47.142,75.167-47.142,130.116
	h0.1c0.801,17.215,15.113,30.928,32.529,30.928c17.416,0,31.728-13.712,32.529-30.928v-1.201v-0.4v-0.2
	c0.5-81.473,36.332-122.209,107.396-122.209c27.424,0,50.145,8.007,67.961,23.921s26.724,36.332,26.724,61.255
	c0,29.026-16.515,58.352-49.644,88.179l-24.622,21.92c-24.122,21.519-39.635,40.336-46.441,56.25
	c-6.806,15.914-10.209,41.637-10.209,76.969v0.1c-0.1,0.901-0.1,1.802-0.1,2.702c0,16.715,13.612,30.327,30.327,30.327
	c16.014,0,29.026-12.311,30.227-28.025l0.1-0.1l0.3-11.21c0-36.433,17.315-68.761,51.946-96.987
	c58.052-47.442,87.078-92.883,87.078-136.322C680.05,353.258,665.237,318.827,635.51,292.404z M511.9,702.27
	c-10.71,0-21.419,4.404-28.926,12.011c-7.607,7.607-12.011,18.216-12.011,28.926s4.404,21.419,12.011,28.926
	c7.607,7.607,18.216,12.011,28.926,12.011s21.419-4.404,28.926-12.011c7.607-7.607,12.011-18.216,12.011-28.926
	s-4.404-21.419-12.011-28.926C533.319,706.674,522.71,702.27,511.9,702.27z"/>
</svg>
