<?xml version="1.0" encoding="utf-8"?>
<!-- Generator: Adobe Illustrator 17.0.0, SVG Export Plug-In . SVG Version: 6.00 Build 0)  -->
<!DOCTYPE svg PUBLIC "-//W3C//DTD SVG 1.1//EN" "http://www.w3.org/Graphics/SVG/1.1/DTD/svg11.dtd">
<svg version="1.1" id="图层_1" xmlns="http://www.w3.org/2000/svg" xmlns:xlink="http://www.w3.org/1999/xlink" x="0px" y="0px"
	 width="1024px" height="1024px" viewBox="0 0 1024 1024" enable-background="new 0 0 1024 1024" xml:space="preserve">
<g>
	<polygon fill="#EE3F24" points="204,652 260,652 260,540 372,540 372,484 260,484 260,456 372,456 372,400 204,400 	"/>
	<path fill="#EE3F24" d="M512,64C264.574,64,64,264.574,64,512s200.574,448,448,448s448-200.574,448-448S759.426,64,512,64z
		 M512,904c-216.496,0-392-175.504-392-392s175.504-392,392-392s392,175.504,392,392S728.496,904,512,904z"/>
	<path fill="#EE3F24" d="M846.88,498c0-54.123-43.877-98-98-98s-98,43.877-98,97.996v56c0,54.123,43.877,98,98,98
		c18.081,0,34.801-5.242,49.343-13.78l6.272,6.272c9.631,9.631,25.246,9.631,34.877,0c9.631-9.631,9.631-25.246,0-34.877
		l-6.272-6.267c8.539-14.538,13.78-31.262,13.78-49.343L846.88,498L846.88,498z M790.88,554c0,2.101-0.9,3.907-1.196,5.927
		l-13.189-13.189c-9.631-9.631-25.246-9.631-34.877,0c-9.631,9.631-9.631,25.246,0,34.877l13.189,13.189
		c-2.02,0.296-3.826,1.196-5.927,1.196c-23.196,0-42-18.804-42-42v-56c0-23.196,18.804-42,42-42s42,18.804,42,42V554z"/>
	<path fill="#EE3F24" d="M479.52,400l-84,252h56l9.332-28h93.336l9.332,28h56l-84-252H479.52z M479.52,568l28-84l28,84H479.52z"/>
</g>
</svg>
