<?xml version="1.0" encoding="utf-8"?>
<!-- Generator: Adobe Illustrator 17.0.0, SVG Export Plug-In . SVG Version: 6.00 Build 0)  -->
<!DOCTYPE svg PUBLIC "-//W3C//DTD SVG 1.1//EN" "http://www.w3.org/Graphics/SVG/1.1/DTD/svg11.dtd">
<svg version="1.1" id="图层_1" xmlns="http://www.w3.org/2000/svg" xmlns:xlink="http://www.w3.org/1999/xlink" x="0px" y="0px"
	 width="1024px" height="1024px" viewBox="0 0 1024 1024" enable-background="new 0 0 1024 1024" xml:space="preserve">
<g>
	<path fill="#EE3F24" d="M153.853,763.067c-17.808,0.175-32.084,14.586-31.953,32.288c0.131,17.587,14.597,31.791,32.332,31.791
		h0.204c2.815,0,138.745,0.904,222.773,94.237c6.416,7.116,15.255,10.675,24.15,10.675c7.64,0,15.342-2.682,21.481-8.108
		c13.314-11.812,14.481-32.084,2.581-45.266C321.122,762.894,160.562,762.719,153.853,763.067z"/>
	<path fill="#EE3F24" d="M865.82,762.895c-6.184-0.235-163.506-0.381-271.509,115.294c-12.149,12.979-11.348,33.279,1.75,45.265
		c6.241,5.746,14.115,8.547,21.961,8.547l0,0c8.663,0,17.354-3.443,23.685-10.265c87.673-93.859,220.848-94.735,223.529-94.735
		h0.263c17.703,0,32.113-14.144,32.289-31.732C897.991,777.593,883.67,763.098,865.82,762.895z"/>
	<path fill="#EE3F24" d="M304.274,450.772L304.274,450.772c0.001,32.772,26.568,59.338,59.339,59.338s59.338-26.566,59.338-59.338
		s-26.567-59.339-59.339-59.339S304.274,418,304.274,450.772z"/>
	<circle fill="#EE3F24" cx="676.634" cy="450.772" r="59.339"/>
	<path fill="#EE3F24" d="M832.599,590.05c5.456-9.188,10.299-17.366,15.334-28.185c9.17-19.701-46.022-46.014-59.308-25.893
		c-4.51,6.83-7.557,14.503-11.705,21.501c-35.64,59.996-102.666,134.312-219.507,147.203c-0.714,0.057-1.429,0.174-2.099,0.292
		h-90.898c-0.714-0.118-1.415-0.235-2.127-0.294c-116.812-12.921-183.779-87.207-219.42-147.203
		c-54.571-91.962-71.122-212.156-42.948-300.677c57.239,1.867,109.87,15.575,156.521,40.717c7.759,4.14,16.801,5.045,25.201,2.391
		c8.4-2.626,15.328-8.517,19.22-16.334c32.053-64.282,67.958-113.515,106.953-146.764c38.967,33.308,74.082,82.19,106.85,148.632
		c3.915,7.953,10.93,13.945,19.398,16.568c8.399,2.566,17.615,1.633,25.431-2.626c47.659-26.425,101.557-40.715,160.357-42.611
		c20.416,64.143,21.847,130.729,3.501,193.827c-6.329,21.767,52.579,45.297,59.761,25.754
		c29.822-81.149,24.104-180.977-10.908-264.003c-4.931-11.725-16.364-19.424-29.197-19.659l-9.858-0.116
		c-63.174,0-121.975,12.134-175.319,36.02c-38.005-69.969-79.974-121.214-127.69-155.952c-1.368-1.283-2.852-2.435-4.434-3.442
		c-9.128-5.892-20.737-6.825-30.725-2.537c-3.117,1.333-6.014,3.133-8.59,5.337c-47.6,34.358-90.767,86.362-128.552,154.874
		c-52.324-22.808-109.811-34.328-171.352-34.328l-9.727,0.087c-12.804,0.263-24.237,7.991-29.181,19.658
		c-45.85,108.792-29.911,260.574,39.579,377.707c59.878,100.856,152.773,163.739,262.074,177.654
		c3.004,0.934,6.184,1.428,9.436,1.428h18.651v158.84c0,17.734,14.468,32.083,32.302,32.083c17.836,0,32.287-14.35,32.303-32.082
		V769.076h19.132c3.297,0,6.462-0.526,9.537-1.373C679.853,753.79,772.719,690.848,832.599,590.05z"/>
</g>
</svg>
