<?xml version="1.0" encoding="utf-8"?>
<!-- Generator: Adobe Illustrator 17.0.0, SVG Export Plug-In . SVG Version: 6.00 Build 0)  -->
<!DOCTYPE svg PUBLIC "-//W3C//DTD SVG 1.1//EN" "http://www.w3.org/Graphics/SVG/1.1/DTD/svg11.dtd">
<svg version="1.1" id="图层_1" xmlns="http://www.w3.org/2000/svg" xmlns:xlink="http://www.w3.org/1999/xlink" x="0px" y="0px"
	 width="1024px" height="1024px" viewBox="0 0 1024 1024" enable-background="new 0 0 1024 1024" xml:space="preserve">
<g>
	<polygon fill="#EE3F24" points="567.383,525.273 512.028,422.268 456.674,525.452 332.892,542.021 422.461,622.317 
		401.325,735.756 512.028,682.012 622.732,735.756 601.596,622.138 691.165,541.841 	"/>
	<path fill="#EE3F24" d="M661.876,276.273l163.64-122.705V64H556.813v182.225h-89.568V64h-268.7v89.568l163.639,122.705
		c-161.746,74.478-244.243,256.442-193.675,427.174c50.573,170.736,218.857,278.42,395.07,252.793
		c176.214-25.622,306.866-176.769,306.716-354.837C870.18,461.652,788.816,334.725,661.876,276.273z M512.028,870.108
		c-148.399,0-268.7-120.304-268.7-268.704s120.301-268.7,268.7-268.7c71.266,0,139.612,28.31,190.001,78.699
		c50.394,50.389,78.703,118.737,78.703,190.001C780.732,749.804,660.428,870.108,512.028,870.108z"/>
</g>
</svg>
