<?xml version="1.0" encoding="utf-8"?>
<!-- Generator: Adobe Illustrator 17.0.0, SVG Export Plug-In . SVG Version: 6.00 Build 0)  -->
<!DOCTYPE svg PUBLIC "-//W3C//DTD SVG 1.1//EN" "http://www.w3.org/Graphics/SVG/1.1/DTD/svg11.dtd">
<svg version="1.1" id="图层_1" xmlns="http://www.w3.org/2000/svg" xmlns:xlink="http://www.w3.org/1999/xlink" x="0px" y="0px"
	 width="115px" height="40px" viewBox="-0.083 0 115 40" enable-background="new -0.083 0 115 40" xml:space="preserve">
<g>
	<g>
		<path fill="#189FD9" d="M26.868,33.725c-3.625,0-7.251,0.003-10.876-0.002c-2.709-0.003-5.417-0.015-8.126-0.025
			c-1.556-0.006-3.019-1.25-3.478-2.994c-0.195-0.738-0.231-1.51-0.213-2.279c0.042-1.791,0.45-3.458,1.277-4.975
			c0.677-1.244,1.61-2.158,2.671-2.911c1.191-0.845,2.497-1.331,3.855-1.617c0.973-0.204,1.954-0.349,2.934-0.506
			c0.147-0.024,0.184-0.099,0.209-0.246c0.579-3.483,2.009-6.397,4.277-8.733c1.39-1.432,2.986-2.42,4.798-2.895
			c1.152-0.302,2.321-0.364,3.496-0.298c1.389,0.077,2.738,0.393,4.017,1.045c1.832,0.934,3.293,2.406,4.438,4.317
			c0.232,0.388,0.46,0.78,0.684,1.176c0.06,0.107,0.118,0.137,0.231,0.12c0.943-0.143,1.889-0.24,2.841-0.157
			c1.147,0.099,2.222,0.438,3.137,1.316c1.069,1.026,1.58,2.363,1.646,3.963c0.046,1.105-0.058,2.197-0.178,3.288
			c-0.017,0.16,0.029,0.231,0.127,0.306c0.444,0.335,0.941,0.505,1.449,0.623c1.002,0.235,1.914,0.692,2.69,1.48
			c1.032,1.048,1.601,2.4,1.815,3.967c0.12,0.876,0.086,1.746-0.067,2.617c-0.228,1.305-0.918,2.155-1.905,2.707
			c-0.962,0.539-1.994,0.688-3.047,0.688c-3.922,0.003-7.844,0.006-11.766,0.007c-2.312,0-4.623,0-6.934,0
			C26.868,33.712,26.868,33.719,26.868,33.725z"/>
	</g>
	<g>
		<path fill="#FFBF00" d="M66.058,8.174l1.167-0.401c0.257,0.488,0.494,0.964,0.715,1.429h6.777v1.08H60.5v3.38
			c0,3.81-0.633,6.644-1.9,8.504c-0.232-0.407-0.529-0.79-0.889-1.15c1.069-1.51,1.603-3.938,1.603-7.283v-4.53h7.266
			C66.43,8.889,66.255,8.546,66.058,8.174z M69.385,5.195h1.185v1.22h4.356V7.53H70.57v1.202h-1.185V7.529H64.63v1.202h-1.185V7.529
			h-5.071V6.415h5.071v-1.22h1.185v1.22h4.755V5.195z M60.152,19.586c1.835-0.789,3.432-1.778,4.792-2.962h-4.007v-0.976h13.59
			v0.976h-8.155c-0.477,0.488-0.969,0.941-1.482,1.359h8.347v4.339h-1.185v-0.714h-7.701v0.732h-1.167v-3.084
			c-0.732,0.488-1.493,0.918-2.283,1.29C60.657,20.185,60.407,19.866,60.152,19.586z M60.831,14.534
			c1.033-0.557,1.917-1.208,2.649-1.951h-2.265v-0.941h2.771v-1.08h1.044v1.08h2.3v0.941h-2.142c0.638,0.43,1.283,0.889,1.933,1.377
			l-0.627,0.732c-0.476-0.442-0.964-0.859-1.464-1.255v1.725h-1.044V13.14c-0.79,0.918-1.592,1.632-2.404,2.143
			C61.267,14.935,61.017,14.685,60.831,14.534z M72.052,18.96h-7.701v1.673h7.701V18.96z M74.682,14.133
			c-0.279,0.36-0.504,0.692-0.679,0.993c-1.128-0.534-2.033-1.214-2.718-2.038v2.073h-1.046V13.14
			c-0.697,0.802-1.441,1.464-2.231,1.986c-0.269-0.314-0.535-0.581-0.802-0.802c0.929-0.407,1.783-0.987,2.561-1.743h-1.95v-0.94
			h2.423v-1.063h1.045v1.063h2.788v0.941h-2.335C72.563,13.314,73.544,13.831,74.682,14.133z"/>
		<path fill="#FFBF00" d="M83.063,20.162l-0.906,1.115c-0.616-0.558-1.278-1.133-1.986-1.725c-0.987,1.092-2.236,1.998-3.746,2.719
			c-0.198-0.372-0.453-0.773-0.767-1.202c1.418-0.593,2.59-1.371,3.519-2.336c-0.732-0.592-1.505-1.202-2.318-1.83
			c0.418-1.266,0.813-2.584,1.185-3.955h-2.073V11.73h2.387c0.174-0.709,0.349-1.429,0.523-2.161l1.272,0.226
			c-0.163,0.674-0.325,1.319-0.488,1.934h3.224v1.202c-0.22,2.173-0.854,4.03-1.899,5.576
			C81.676,19.041,82.367,19.592,83.063,20.162z M86.252,5.229h1.394v1.638h4.913v1.238h-4.913v1.238h-1.394V8.104h-4.095v1.342
			h-1.359V8.104h-4.913V6.868h4.913V5.212h1.359v1.655h4.095V5.229z M81.669,12.948h-2.335c-0.36,1.312-0.72,2.48-1.08,3.502
			c0.581,0.418,1.161,0.848,1.743,1.29C80.903,16.416,81.46,14.818,81.669,12.948z M83.952,15.475h3.172v-2.613h-3.659v-1.22h3.659
			V9.777h1.324v1.864h3.816v1.22h-3.817v2.613h3.189v6.83h-1.29v-0.905h-5.105v0.906h-1.29L83.952,15.475L83.952,15.475z
			 M90.346,16.659h-5.105v3.554h5.105V16.659z"/>
		<path fill="#FFBF00" d="M104.808,14.725c1.719,1.917,3.427,3.95,5.123,6.099l-1.307,0.976c-0.418-0.575-0.837-1.136-1.255-1.682
			c-4.17,0.145-7.69,0.31-10.559,0.497c-0.499,0.058-0.969,0.152-1.411,0.279l-0.697-1.603c0.697-0.336,1.278-0.784,1.743-1.342
			c1.248-1.51,2.402-3.148,3.459-4.913h-6.282v-1.289h17.041v1.29h-8.869c-1.743,2.596-3.247,4.647-4.513,6.151
			c3.961-0.099,7.014-0.191,9.155-0.279c-0.922-1.179-1.849-2.318-2.779-3.415L104.808,14.725z M95.243,6.397h13.782v1.29H95.243
			V6.397z"/>
	</g>
	<g>
		<path fill="#189FD9" d="M58.155,26.4h0.789v8.035h-0.789V26.4z M58.688,24.873l0.564-0.502c0.607,0.553,1.068,1.014,1.383,1.383
			L60,26.318C59.652,25.901,59.214,25.419,58.688,24.873z M60.215,27.712h1.414c-0.281-0.384-0.603-0.786-0.964-1.21l0.553-0.43
			c0.464,0.485,0.837,0.915,1.117,1.291l-0.492,0.349h1.168c0.381-0.533,0.73-1.076,1.045-1.629l0.707,0.41
			c-0.301,0.424-0.609,0.83-0.922,1.22h1.394v2.89H63.8v1.394c0,0.293,0.135,0.441,0.41,0.441h0.492
			c0.349,0,0.539-0.168,0.574-0.502c0.027-0.253,0.041-0.557,0.041-0.912c0.156,0.055,0.396,0.143,0.718,0.266
			c-0.029,0.457-0.061,0.785-0.103,0.984c-0.082,0.553-0.449,0.83-1.097,0.83h-0.861c-0.595,0-0.892-0.318-0.892-0.953v-1.548
			h-0.799c-0.049,0.765-0.24,1.359-0.574,1.783c-0.328,0.451-0.968,0.858-1.917,1.22c-0.131-0.233-0.281-0.451-0.451-0.656
			c0.82-0.266,1.414-0.604,1.783-1.014c0.246-0.307,0.389-0.752,0.43-1.333H60.95v0.287h-0.738v-3.177h0.003V27.712z M64.5,28.388
			h-3.546v1.537H64.5V28.388z M61.322,25.765v-0.738h5.996v8.087c0,0.881-0.492,1.322-1.476,1.322c-0.521,0-1.033-0.007-1.537-0.02
			c-0.041-0.239-0.096-0.502-0.164-0.789c0.565,0.041,1.088,0.061,1.568,0.061c0.545,0,0.82-0.235,0.82-0.707v-7.216L61.322,25.765
			L61.322,25.765z"/>
		<path fill="#189FD9" d="M71.883,28.214h3.229c0.226-0.325,0.425-0.67,0.6-1.035h-3.233v-0.707h3.536
			c0.253-0.643,0.454-1.357,0.604-2.142l0.851,0.174c-0.178,0.707-0.374,1.363-0.589,1.968h4.474v0.707h-4.741
			c-0.151,0.358-0.326,0.703-0.528,1.035h5.791v0.707h-2.84c0.755,0.864,1.756,1.425,3.003,1.681c-0.198,0.252-0.4,0.525-0.604,0.82
			c-0.789-0.274-1.486-0.66-2.09-1.158c-0.02,0.385-0.048,0.802-0.082,1.251c-0.068,0.826-0.499,1.244-1.291,1.251
			c-0.321,0.007-0.738-0.004-1.251-0.031c-0.028-0.261-0.079-0.533-0.154-0.82c0.505,0.068,0.902,0.103,1.189,0.103
			c0.472,0.007,0.72-0.195,0.748-0.604c0.02-0.184,0.034-0.389,0.041-0.615h-3.495v2.06c0,0.437,0.215,0.656,0.646,0.656h3.269
			c0.561,0,0.892-0.161,0.994-0.481c0.089-0.281,0.161-0.65,0.215-1.107c0.205,0.095,0.468,0.195,0.789,0.297
			c-0.095,0.451-0.187,0.82-0.277,1.107c-0.184,0.601-0.687,0.902-1.506,0.902h-3.598c-0.889,0-1.332-0.433-1.332-1.302v-2.583
			c-0.574,0.481-1.227,0.915-1.958,1.302c-0.184-0.226-0.389-0.451-0.615-0.676c1.168-0.533,2.127-1.216,2.875-2.05h-2.67
			L71.883,28.214L71.883,28.214z M73.144,24.965l0.584-0.472c0.485,0.464,0.925,0.908,1.322,1.333l-0.656,0.543
			C74.012,25.904,73.595,25.437,73.144,24.965z M74.517,30.11h4.653c-0.386-0.349-0.731-0.745-1.035-1.189h-2.526
			C75.291,29.345,74.927,29.741,74.517,30.11z M78.566,25.969c0.458-0.472,0.858-0.968,1.199-1.486l0.718,0.441
			c-0.397,0.519-0.827,1.021-1.291,1.506L78.566,25.969z"/>
		<path fill="#189FD9" d="M88.563,31.412l0.666,0.523c-0.874,0.785-1.794,1.545-2.757,2.275c-0.164-0.198-0.352-0.407-0.564-0.625
			C86.797,32.976,87.681,32.252,88.563,31.412z M93.175,28.593c0.874,0.703,1.77,1.476,2.685,2.316
			c-0.226,0.218-0.433,0.426-0.625,0.625c-0.284-0.281-0.571-0.557-0.861-0.83c-0.912,0.037-1.845,0.082-2.798,0.134v2.306
			c0,0.779-0.41,1.168-1.23,1.168c-0.335,0-0.776-0.007-1.322-0.02c-0.034-0.253-0.079-0.533-0.134-0.841
			c0.574,0.061,1.014,0.092,1.322,0.092c0.376,0,0.564-0.184,0.564-0.553v-2.112c-0.83,0.044-1.673,0.092-2.531,0.143
			c-0.389,0.02-0.776,0.064-1.158,0.134l-0.338-0.881c0.451-0.082,0.878-0.215,1.281-0.4c1.045-0.512,2.016-1.029,2.911-1.548
			c-1.189,0.092-2.186,0.174-2.993,0.246c-0.356,0.034-0.625,0.072-0.81,0.112l-0.328-0.861c0.328-0.082,0.635-0.202,0.922-0.358
			c0.858-0.479,1.717-1.044,2.578-1.696c-1.172,0.072-2.359,0.134-3.562,0.19c-0.048-0.24-0.11-0.479-0.184-0.718
			c3.26-0.123,6.152-0.311,8.681-0.564l0.154,0.728c-1.483,0.123-2.987,0.234-4.515,0.333l0.415,0.292
			c-1.073,0.718-2.064,1.322-2.972,1.814c1.53-0.086,2.798-0.168,3.802-0.246c0.684-0.437,1.315-0.878,1.896-1.322l0.666,0.543
			c-1.715,1.223-3.707,2.367-5.976,3.434c1.36-0.048,3.008-0.12,4.945-0.215c-0.341-0.314-0.684-0.622-1.03-0.922L93.175,28.593z
			 M92.57,31.955l0.523-0.553c0.861,0.574,1.807,1.26,2.839,2.06l-0.604,0.666C94.371,33.336,93.452,32.611,92.57,31.955z"/>
		<path fill="#189FD9" d="M100.108,32.734c1.135-0.219,2.306-0.465,3.515-0.738c-0.028,0.354-0.041,0.6-0.041,0.738
			c-1.237,0.273-2.316,0.533-3.239,0.779L100.108,32.734z M101.44,30.582c0.547-0.076,1.247-0.178,2.101-0.307
			c-0.041,0.273-0.075,0.525-0.103,0.758c-0.854,0.116-1.831,0.262-2.931,0.441l-0.164-0.738c0.428-0.437,0.934-1.15,1.522-2.137
			c-0.71,0.047-1.222,0.083-1.532,0.108l-0.195-0.697c0.601-0.794,1.251-2.002,1.947-3.629l0.779,0.307
			c-0.663,1.298-1.268,2.384-1.814,3.26c0.448-0.007,0.851-0.017,1.21-0.031c0.205-0.366,0.42-0.763,0.646-1.189l0.769,0.338
			C102.896,28.426,102.15,29.598,101.44,30.582z M108.338,27.128c0.574,0.772,1.161,1.643,1.763,2.613
			c-0.239,0.136-0.492,0.29-0.758,0.461c-0.171-0.291-0.335-0.569-0.492-0.835c-0.318,0.02-0.646,0.039-0.984,0.056v3.475
			c0,0.417,0.154,0.625,0.461,0.625h0.502c0.335,0,0.525-0.171,0.574-0.512c0.055-0.41,0.089-0.855,0.103-1.333
			c0.226,0.095,0.499,0.195,0.82,0.297c-0.055,0.595-0.112,1.056-0.174,1.383c-0.095,0.595-0.454,0.892-1.076,0.892h-0.881
			c-0.745,0-1.117-0.428-1.117-1.281v-3.5c-0.382,0.02-0.779,0.044-1.189,0.072c-0.055,1.486-0.246,2.522-0.574,3.11
			c-0.389,0.751-1.117,1.374-2.183,1.866c-0.151-0.212-0.325-0.441-0.523-0.687c0.991-0.402,1.653-0.933,1.989-1.589
			c0.307-0.523,0.473-1.406,0.497-2.649c-0.14,0.011-0.282,0.019-0.425,0.025c-0.294,0.027-0.567,0.072-0.82,0.134l-0.349-0.799
			c0.294-0.123,0.53-0.287,0.707-0.492c0.512-0.612,0.994-1.278,1.445-1.998h-2.235v-0.728h3.269
			c-0.257-0.393-0.499-0.742-0.728-1.045l0.676-0.42c0.259,0.321,0.551,0.703,0.871,1.148l-0.487,0.318h3.121v0.728h-4.161
			l0.564,0.246c-0.567,0.765-1.124,1.469-1.671,2.112c1.288-0.045,2.472-0.091,3.551-0.138c-0.259-0.417-0.508-0.798-0.743-1.143
			L108.338,27.128z"/>
	</g>
</g>
</svg>
