<?xml version="1.0" encoding="utf-8"?>
<!-- Generator: Adobe Illustrator 17.0.0, SVG Export Plug-In . SVG Version: 6.00 Build 0)  -->
<!DOCTYPE svg PUBLIC "-//W3C//DTD SVG 1.1//EN" "http://www.w3.org/Graphics/SVG/1.1/DTD/svg11.dtd">
<svg version="1.1" id="图层_1" xmlns="http://www.w3.org/2000/svg" xmlns:xlink="http://www.w3.org/1999/xlink" x="0px" y="0px"
	 width="160px" height="40px" viewBox="0 0 160 40" enable-background="new 0 0 160 40" xml:space="preserve">
<g>
	<g>
		<path fill="#83CEED" d="M29.645,21.871c-0.122,0.127-0.324,0.131-0.452,0.009c-0.127-0.122-0.131-0.324-0.009-0.452
			c0.122-0.127,0.324-0.131,0.451-0.009C29.763,21.542,29.767,21.744,29.645,21.871L29.645,21.871z"/>
		<path fill="#83CEED" d="M27.562,23.118L27.562,23.118c-0.122,0.127-0.118,0.329,0.009,0.452c0.127,0.122,0.329,0.118,0.452-0.009
			l0,0l0,0c0.122-0.127,0.118-0.329-0.009-0.452C27.886,22.987,27.684,22.991,27.562,23.118
			C27.44,23.246,27.562,23.118,27.562,23.118L27.562,23.118z"/>
		<path fill="#83CEED" d="M37.142,29.694l-7.159-7.098c-0.115-0.11-0.118-0.293-0.008-0.408c0.11-0.115,0.293-0.118,0.408-0.008
			l7.159,7.098c0.115,0.11,0.118,0.293,0.008,0.408C37.439,29.801,37.257,29.804,37.142,29.694L37.142,29.694z"/>
		<path fill="#83CEED" d="M35.519,31.383l-7.159-7.098c-0.115-0.11-0.118-0.293-0.008-0.408c0.111-0.115,0.293-0.119,0.408-0.008
			l7.159,7.098c0.115,0.11,0.119,0.293,0.008,0.408C35.817,31.49,35.634,31.494,35.519,31.383L35.519,31.383z"/>
		<path fill="#83CEED" d="M26.435,25.082c-0.122,0.127-0.324,0.131-0.452,0.009c-0.127-0.122-0.131-0.324-0.009-0.452
			c0.122-0.127,0.324-0.131,0.451-0.009C26.553,24.753,26.557,24.955,26.435,25.082L26.435,25.082z"/>
		<path fill="#83CEED" d="M24.352,26.329L24.352,26.329c-0.122,0.127-0.118,0.329,0.009,0.452c0.127,0.122,0.329,0.118,0.452-0.009
			l0,0l0,0c0.122-0.127,0.118-0.329-0.009-0.452C24.676,26.197,24.474,26.201,24.352,26.329
			C24.229,26.456,24.352,26.329,24.352,26.329L24.352,26.329z"/>
		<path fill="#83CEED" d="M33.932,32.904l-7.159-7.098c-0.115-0.11-0.118-0.293-0.008-0.408c0.11-0.115,0.293-0.118,0.408-0.008
			l7.159,7.098c0.115,0.11,0.118,0.293,0.008,0.408C34.229,33.011,34.047,33.015,33.932,32.904L33.932,32.904z"/>
		<path fill="#83CEED" d="M32.309,34.594l-7.159-7.098c-0.115-0.11-0.118-0.293-0.008-0.408c0.111-0.115,0.293-0.119,0.408-0.008
			l7.159,7.098c0.115,0.11,0.119,0.293,0.008,0.408C32.606,34.7,32.424,34.704,32.309,34.594L32.309,34.594z"/>
	</g>
	<circle fill="#2293C8" cx="31.323" cy="27.649" r="0.582"/>
	<g>
		<path fill="#2293C8" d="M57.406,18.038c0,0,4.813,4.662,1.905,11.38c0,0-2.056,5.164-8.473,5.916H13.889
			c0,0-7.57-1.253-7.47-9.826c0,0,0.083-5.857,6.513-7.963c0,0,3.658-1.146,6.615,0.628c0,0-3.104-5.839,1.7-10.495
			s10.864-1.996,11.825-0.85c0,0,3.548-5.358,10.864-3.252c0,0,3.326,0.924,4.952,3.658c0,0,0.259,0.48-0.333,0.924L37.359,19.504
			l2.143,2.106L51.105,9.6c0,0,1.737-2.106,0.148-4.213c0,0-2.513-3.695-6.615-4.804S36.989-0.23,32.665,3.022
			c0,0-6.06-3.067-12.417,1.478c0,0-4.651,3.192-4.623,9.644c0,0-9.317-0.111-11.903,9.261c0,0-1.919,6.675,3.393,11.598
			c0,0,2.114,2.281,6.675,3.365h37.073c0,0,6.619-0.25,10.318-6.035s1.252-12.098,1.252-12.098s-0.779-1.975-2.197-3.532
			L57.406,18.038z"/>
		<path fill="#2293C8" d="M37.995,22.691l-1.613-1.624l-2.669,1.483c0.064,1.152-1.449,4.02-1.449,4.02s2.35-2.307,3.319-3.212
			c-0.142-0.147-0.099-0.376,0.114-0.507c0.189-0.116,0.387,0.002,0.478,0.096c0.166,0.172,0.113,0.346,0.049,0.434
			c-0.133,0.185-0.322,0.221-0.473,0.118l-3.25,3.321c1.455-0.591,2.965-1.579,3.989-1.476L37.995,22.691z"/>
		<polygon fill="#2293C8" points="38.302,22.423 36.623,20.734 36.834,20.027 38.958,22.165 		"/>
	</g>
	<polygon fill="#FFFFFF" points="25.726,35.074 30.296,39.539 35.129,35.074 33.762,34.893 26.524,34.674 	"/>
	<path fill="#83CEED" d="M45.167,23.89L35.083,13.807c-0.557-0.557-1.511-0.506-2.131,0.115L19.475,27.398
		c-0.62,0.62-0.672,1.575-0.115,2.131l10.084,10.084c0.557,0.557,1.511,0.506,2.131-0.115l13.477-13.477
		C45.673,25.402,45.724,24.447,45.167,23.89z M30.97,38.894c-0.248,0.248-0.63,0.268-0.852,0.045L20.034,28.856
		c-0.222-0.222-0.202-0.605,0.045-0.852l13.477-13.477c0.248-0.248,0.63-0.268,0.853-0.046l10.084,10.084
		c0.222,0.222,0.202,0.605-0.046,0.853L30.97,38.894z"/>
	<polygon fill="#2E93CC" points="39.504,17.34 38.156,18.688 39.601,21.516 41.912,19.094 	"/>
</g>
<g>
	<g>
		<text transform="matrix(1 0 0 1 70.3062 22.5591)" fill="#2293C8" font-family="'PingFang-SC-Bold'" font-size="16.8701">蘑菇云阅卷</text>
	</g>
	<g>
		<rect x="79.155" y="31.693" fill="#2293C8" width="13.321" height="0.271"/>
		<rect x="132.484" y="31.658" fill="#2293C8" width="13.321" height="0.271"/>
		<g>
			<text transform="matrix(1 0 0 1 94.5982 34.1265)" fill="#2293C8" font-family="'PingFang-SC-Regular'" font-size="7.6326">Ustudying</text>
		</g>
	</g>
</g>
</svg>
